
<svg width="191px" height="47px" viewBox="0 0 191 47" version="1.1" xmlns="http://www.w3.org/2000/svg" xmlns:xlink="http://www.w3.org/1999/xlink">
    <defs>
        <polygon id="path-1" points="0 0.0539162602 45.0314207 0.0539162602 45.0314207 46.6178862 0 46.6178862"></polygon>
    </defs>
    <g id="Symbols" stroke="none" stroke-width="1" fill="none" fill-rule="evenodd">
        <g id="Desktop/Nav/TopNav" transform="translate(-63.000000, -22.000000)">
            <g id="Page-1" transform="translate(63.000000, 22.000000)">
                <g id="Group-3" transform="translate(0.000000, 0.328236)">
                    <mask id="mask-2" fill="white">
                        <use xlink:href="#path-1"></use>
                    </mask>
                    <g id="Clip-2"></g>
                    <path d="M24.4983511,37.0337455 L25.549041,41.4070382 C24.9597129,42.0933146 24.3187427,42.5212821 23.6473948,42.7409976 L22.5891105,37.4468106 L21.6363889,42.8273553 C20.9001085,42.6596073 20.1953451,42.2587699 19.550198,41.564087 L20.6384803,37.0337455 L18.5424167,40.1399488 C18.0320708,39.214087 17.5794425,38.0276236 17.2057964,36.5362333 L16.1554863,33.0269 C15.3451602,36.0058593 12.5101583,34.0398837 11.588194,32.7024854 C8.30625964,27.9447862 6.63548429,22.4496073 6.36967913,18.7744366 C6.34233917,19.3476073 6.32904891,19.9490545 6.33132724,20.5806886 C6.34499722,24.2061846 8.0093173,30.274152 11.588194,35.4632577 C12.3791543,36.6107455 14.832536,39.492648 16.0244823,38.4028593 C15.9690429,38.8243309 15.7977885,39.2415992 15.6010926,39.6298268 L13.5054087,43.7616236 L13.5054087,40.3695992 C13.1868223,40.4204203 12.8454525,40.4635992 12.4820588,40.4995179 C11.4363054,40.603835 10.1949952,40.6496886 8.75812843,40.6496886 L8.75812843,46.6179244 L36.2047905,46.6179244 L36.2047905,40.6496886 C34.1584704,40.603835 32.733375,40.5342902 31.9287447,40.4418187 C31.7814127,40.4272984 31.6390171,40.4101033 31.5030767,40.3909976 L31.5030767,43.7616236 L29.3390429,39.496087 C29.1628521,39.1487455 29.0747567,38.8770626 29.0181781,38.4762252 C30.2401225,39.3485911 32.5909793,36.5813228 33.3629535,35.4632577 C36.9414505,30.274152 38.6053909,24.2061846 38.6194406,20.5806886 C38.6217189,19.9490545 38.6088083,19.3476073 38.5814684,18.7744366 C38.3156632,22.4496073 36.6441284,27.9447862 33.3629535,32.7024854 C32.4406095,34.0398837 29.6059873,36.0058593 28.7952815,33.0269 L27.7449714,36.5362333 C27.3910708,37.948526 26.9684406,39.0872252 26.493029,39.9893959 L24.4983511,37.0337455 Z M45.0314207,0.0539162602 L45.0314207,18.0274041 L38.7561404,18.0274041 C38.7561404,16.5788106 38.6577924,15.267778 38.4622358,14.0943065 L35.3773769,19.4859325 L37.5235638,10.5372089 C36.8662656,9.00263984 35.8979753,7.92278618 34.58186,7.22695691 L32.1937905,14.6686236 L32.0969614,6.41611138 C31.1153809,6.24568862 30.01153,6.18875366 28.778194,6.23193252 L28.7907249,26.4988675 C28.7922437,28.3429488 27.2828501,29.3853553 25.9914167,28.5156642 C24.9354107,27.8045504 24.6901105,25.9092659 26.0134406,24.8928431 L27.0398282,24.697965 L27.5965002,25.020087 C27.8376235,23.2979 26.9300887,22.8072659 25.6128342,22.7575911 C21.4841205,20.1649488 17.3535082,24.4832171 18.4330569,29.3135179 C18.5955777,30.0414447 18.4486254,30.3479 18.0035917,30.4667374 C16.7717746,30.7961195 16.1577646,29.5427862 16.1577646,28.2542984 L16.1725738,6.23193252 C14.9396175,6.18875366 13.8357666,6.24645285 12.8541861,6.41687561 L12.7569773,14.6686236 L10.3689078,7.22733902 C9.05241272,7.92316829 8.08488191,9.00340407 7.4275837,10.5383553 L9.57301113,19.4859325 L6.50296143,14.1202902 C6.30550616,15.2884122 6.20677853,16.5906561 6.20677853,18.0274041 L-0.000151888668,18.0274041 L-0.000151888668,0.0539162602 L45.0314207,0.0539162602 Z" id="Fill-1" fill="#FFDC00" mask="url(#mask-2)"></path>
                </g>
                <path d="M64.2560074,9.13706748 L63.8975501,9.13706748 C62.4352419,9.13706748 61.3720213,9.57611626 60.7075083,10.4542138 C60.0429954,11.3323114 59.6974487,12.7572138 59.6712479,14.7270106 L57.5846773,14.7270106 L57.5846773,7.11759593 L74.781892,7.11759593 L74.781892,14.7270106 L72.6953215,14.7270106 C72.6774746,12.7835797 72.3364845,11.3659374 71.6715918,10.4744659 C71.0070789,9.58299431 69.9484149,9.13706748 68.4955998,9.13706748 L68.096892,9.13706748 L68.096892,21.707848 C68.096892,22.4483846 68.1963791,22.916474 68.395733,23.1124984 C68.5954666,23.3085228 69.102395,23.406726 69.9176575,23.406726 L71.4726177,23.406726 L71.4726177,25.4930675 L60.8802817,25.4930675 L60.8802817,23.406726 L62.4618225,23.406726 C63.2679716,23.406726 63.7688245,23.3111976 63.9636217,23.1193764 C64.1584189,22.9275553 64.2560074,22.4567911 64.2560074,21.707848 L64.2560074,9.13706748 Z" id="Fill-4" fill="#FFDC00"></path>
                <path d="M84.0653274,17.3618382 C83.9855859,16.1669683 83.7440829,15.2934561 83.3411982,14.7405374 C82.9379338,14.1876187 82.3463274,13.9113504 81.5671386,13.9113504 C80.7693433,13.9113504 80.1200193,14.2032854 79.6199258,14.7875374 C79.1194527,15.3714073 78.7890948,16.229635 78.6299915,17.3618382 L84.0653274,17.3618382 Z M85.3013215,20.8654398 L87.5868662,20.8654398 C87.392069,22.4527407 86.7609716,23.7030171 85.6931942,24.6170333 C84.6257966,25.5306675 83.2591783,25.9876756 81.5933394,25.9876756 C79.520059,25.9876756 77.8678901,25.3571878 76.6364527,24.095448 C75.4046356,22.8337081 74.788727,21.1462935 74.788727,19.0335862 C74.788727,16.9472447 75.4110909,15.2644154 76.6561982,13.9850984 C77.9009258,12.7057813 79.5470193,12.0657407 81.5933394,12.0657407 C83.5690312,12.0657407 85.0753871,12.6832366 86.1120272,13.9178463 C87.1486674,15.1532203 87.6666078,16.9472447 87.6666078,19.3006837 L78.4970889,19.3006837 C78.5502499,20.7630333 78.8578245,21.8772772 79.420572,22.6441797 C79.9829398,23.4110821 80.7739,23.7947244 81.7926932,23.7947244 C82.8384467,23.7947244 83.6290272,23.5692772 84.1651942,23.1191472 C84.7009815,22.6690171 85.079564,21.9177813 85.3013215,20.8654398 Z" id="Fill-6" fill="#FFDC00"></path>
                <path d="M88.7873563,25.4929528 L88.7873563,23.6607171 L89.6910938,23.6607171 C90.3111793,23.6607171 90.7235571,23.5625138 90.9274676,23.3664894 C91.1309984,23.170465 91.2327638,22.7199528 91.2327638,22.0157171 L91.2327638,16.0379285 C91.2327638,15.3336927 91.1309984,14.8854732 90.9274676,14.693652 C90.7235571,14.5018309 90.3111793,14.4059203 89.6910938,14.4059203 L88.7873563,14.4059203 L88.7873563,12.5606927 L94.5287479,12.5606927 L94.5287479,14.8338878 C95.2373085,13.9424163 95.9659944,13.2737171 96.7148056,12.8277902 C97.4636167,12.3822455 98.2234398,12.1590911 98.9942748,12.1590911 C100.47367,12.1590911 101.536891,12.524774 102.183557,13.2561398 C102.830223,13.9871236 103.153746,15.2087415 103.153746,16.9202293 L103.153746,22.0157171 C103.153746,22.7199528 103.25779,23.170465 103.465877,23.3664894 C103.674344,23.5625138 104.088621,23.6607171 104.709086,23.6607171 L105.506122,23.6607171 L105.506122,25.4929528 L97.7711913,25.4929528 L97.7711913,23.6607171 L98.3164716,23.6607171 C98.9365571,23.6607171 99.3504537,23.5625138 99.5589209,23.3664894 C99.7670083,23.170465 99.8710521,22.7199528 99.8710521,22.0157171 L99.8710521,16.9202293 C99.8710521,15.9664732 99.7138473,15.2844 99.3994378,14.8743919 C99.0846485,14.4643837 98.5689865,14.2591886 97.8509328,14.2591886 C96.8230262,14.2591886 96.0123205,14.6516195 95.4191952,15.4360992 C94.8253105,16.2201967 94.5287479,17.2996683 94.5287479,18.6722211 L94.5287479,22.0157171 C94.5287479,22.7199528 94.6327917,23.170465 94.8408791,23.3664894 C95.0489666,23.5625138 95.4632429,23.6607171 96.0837082,23.6607171 L96.6286087,23.6607171 L96.6286087,25.4929528 L88.7873563,25.4929528 Z" id="Fill-8" fill="#FFDC00"></path>
                <path d="M106.363951,25.4929528 L106.363951,23.6607171 L107.268068,23.6607171 C107.888154,23.6607171 108.300152,23.5625138 108.504062,23.3664894 C108.707593,23.170465 108.809358,22.7199528 108.809358,22.0157171 L108.809358,16.0379285 C108.809358,15.3336927 108.707593,14.8854732 108.504062,14.693652 C108.300152,14.5018309 107.888154,14.4059203 107.268068,14.4059203 L106.363951,14.4059203 L106.363951,12.5606927 L112.105343,12.5606927 L112.105343,14.8338878 C112.813903,13.9424163 113.542589,13.2737171 114.2914,12.8277902 C115.040211,12.3822455 115.800034,12.1590911 116.570869,12.1590911 C118.050265,12.1590911 119.113486,12.524774 119.760152,13.2561398 C120.406818,13.9871236 120.730341,15.2087415 120.730341,16.9202293 L120.730341,22.0157171 C120.730341,22.7199528 120.834384,23.170465 121.042851,23.3664894 C121.250939,23.5625138 121.665215,23.6607171 122.285681,23.6607171 L123.082716,23.6607171 L123.082716,25.4929528 L115.348166,25.4929528 L115.348166,23.6607171 L115.893066,23.6607171 C116.513152,23.6607171 116.927428,23.5625138 117.135516,23.3664894 C117.343603,23.170465 117.447647,22.7199528 117.447647,22.0157171 L117.447647,16.9202293 C117.447647,15.9664732 117.290442,15.2844 116.976032,14.8743919 C116.661243,14.4643837 116.145581,14.2591886 115.427907,14.2591886 C114.400001,14.2591886 113.589295,14.6516195 112.99579,15.4360992 C112.401905,16.2201967 112.105343,17.2996683 112.105343,18.6722211 L112.105343,22.0157171 C112.105343,22.7199528 112.209766,23.170465 112.417474,23.3664894 C112.625561,23.5625138 113.040217,23.6607171 113.660303,23.6607171 L114.205203,23.6607171 L114.205203,25.4929528 L106.363951,25.4929528 Z" id="Fill-10" fill="#FFDC00"></path>
                <path d="M132.561025,17.3618382 C132.481283,16.1669683 132.23978,15.2934561 131.836896,14.7405374 C131.433251,14.1876187 130.842025,13.9113504 130.062456,13.9113504 C129.265041,13.9113504 128.615717,14.2032854 128.115623,14.7875374 C127.61477,15.3714073 127.284792,16.229635 127.125689,17.3618382 L132.561025,17.3618382 Z M133.796639,20.8654398 L136.082564,20.8654398 C135.887766,22.4527407 135.257049,23.7030171 134.188892,24.6170333 C133.121494,25.5306675 131.754876,25.9876756 130.089037,25.9876756 C128.015756,25.9876756 126.363208,25.3571878 125.13177,24.095448 C123.900333,22.8337081 123.284424,21.1462935 123.284424,19.0335862 C123.284424,16.9472447 123.906788,15.2644154 125.151516,13.9850984 C126.396623,12.7057813 128.042717,12.0657407 130.089037,12.0657407 C132.064729,12.0657407 133.571084,12.6832366 134.607725,13.9178463 C135.643985,15.1532203 136.162685,16.9472447 136.162685,19.3006837 L126.992407,19.3006837 C127.045947,20.7630333 127.353142,21.8772772 127.916269,22.6441797 C128.478637,23.4110821 129.269597,23.7947244 130.288391,23.7947244 C131.333764,23.7947244 132.124345,23.5692772 132.660892,23.1191472 C133.196679,22.6690171 133.575641,21.9177813 133.796639,20.8654398 Z" id="Fill-12" fill="#FFDC00"></path>
                <path d="M137.577528,25.6534024 L137.577528,20.3706789 L139.571067,20.3706789 C139.827758,21.5475894 140.33051,22.4482317 141.079701,23.0722236 C141.828132,23.6965976 142.769462,24.0084024 143.903311,24.0084024 C144.594405,24.0084024 145.148039,23.8547927 145.564593,23.5468089 C145.981148,23.2395894 146.189615,22.8272886 146.189615,22.3099065 C146.189615,21.8998984 146.021019,21.5678415 145.684585,21.3137358 C145.347393,21.0596301 144.753888,20.8253943 143.903311,20.6117927 L141.883572,20.1299472 C140.474804,19.7826057 139.42943,19.2808902 138.747071,18.6251829 C138.064711,17.9702398 137.723721,17.1391423 137.723721,16.131126 C137.723721,14.9186789 138.179766,13.9381748 139.092617,13.1892317 C140.005088,12.4402886 141.209945,12.065435 142.707568,12.065435 C143.416128,12.065435 144.089375,12.1751016 144.727307,12.3936707 C145.365619,12.6122398 145.985705,12.9439146 146.587943,13.3898415 L147.186005,12.3734187 L148.740965,12.3734187 L148.740965,17.1609228 L146.893619,17.1609228 C146.61946,16.1716301 146.131518,15.4005244 145.432071,14.8476057 C144.731864,14.294687 143.894578,14.0184187 142.919832,14.0184187 C142.273166,14.0184187 141.765858,14.1544512 141.398667,14.4261341 C141.030717,14.6981992 140.846552,15.0745813 140.846552,15.5560447 C140.846552,15.9037683 140.9711,16.1915 141.219059,16.4188577 C141.466637,16.6465976 141.852434,16.822752 142.375311,16.9473211 L144.847299,17.5224024 C146.44175,17.9056626 147.60218,18.4360366 148.328967,19.1139065 C149.055754,19.7913943 149.419148,20.6740772 149.419148,21.7615732 C149.419148,23.063435 148.958166,24.0886463 148.036582,24.8375894 C147.114997,25.5865325 145.844069,25.9610041 144.222657,25.9610041 C143.416128,25.9610041 142.671874,25.8471341 141.989894,25.6197764 C141.307154,25.3924187 140.60315,25.020622 139.876743,24.5032398 L139.385003,25.6534024 L137.577528,25.6534024 Z" id="Fill-14" fill="#FFDC00"></path>
                <path d="M150.671242,25.6534024 L150.671242,20.3706789 L152.664781,20.3706789 C152.921473,21.5475894 153.424224,22.4482317 154.173036,23.0722236 C154.921467,23.6965976 155.863177,24.0084024 156.997026,24.0084024 C157.688119,24.0084024 158.241753,23.8547927 158.658308,23.5468089 C159.074863,23.2395894 159.28333,22.8272886 159.28333,22.3099065 C159.28333,21.8998984 159.114354,21.5678415 158.77792,21.3137358 C158.441107,21.0596301 157.847602,20.8253943 156.997026,20.6117927 L154.976906,20.1299472 C153.568519,19.7826057 152.522765,19.2808902 151.840405,18.6251829 C151.158425,17.9702398 150.817435,17.1391423 150.817435,16.131126 C150.817435,14.9186789 151.273481,13.9381748 152.186332,13.1892317 C153.098803,12.4402886 154.30366,12.065435 155.800902,12.065435 C156.509843,12.065435 157.183089,12.1751016 157.821022,12.3936707 C158.459334,12.6122398 159.079419,12.9439146 159.681658,13.3898415 L160.279719,12.3734187 L161.83468,12.3734187 L161.83468,17.1609228 L159.987334,17.1609228 C159.712795,16.1716301 159.225232,15.4005244 158.525785,14.8476057 C157.825578,14.294687 156.988292,14.0184187 156.013547,14.0184187 C155.366881,14.0184187 154.859572,14.1544512 154.492382,14.4261341 C154.124431,14.6981992 153.940266,15.0745813 153.940266,15.5560447 C153.940266,15.9037683 154.064435,16.1915 154.312773,16.4188577 C154.560352,16.6465976 154.946149,16.822752 155.469026,16.9473211 L157.941014,17.5224024 C159.535465,17.9056626 160.695894,18.4360366 161.422302,19.1139065 C162.149089,19.7913943 162.512863,20.6740772 162.512863,21.7615732 C162.512863,23.063435 162.051501,24.0886463 161.130296,24.8375894 C160.208712,25.5865325 158.937403,25.9610041 157.315992,25.9610041 C156.509843,25.9610041 155.765588,25.8471341 155.083228,25.6197764 C154.400869,25.3924187 153.696865,25.020622 152.970457,24.5032398 L152.478717,25.6534024 L150.671242,25.6534024 Z" id="Fill-16" fill="#FFDC00"></path>
                <path d="M172.96098,17.3618382 C172.881239,16.1669683 172.639736,15.2934561 172.236851,14.7405374 C171.833207,14.1876187 171.24236,13.9113504 170.462412,13.9113504 C169.664996,13.9113504 169.016052,14.2032854 168.515579,14.7875374 C168.015106,15.3714073 167.684748,16.229635 167.526024,17.3618382 L172.96098,17.3618382 Z M174.196974,20.8654398 L176.482899,20.8654398 C176.288102,22.4527407 175.657004,23.7030171 174.589227,24.6170333 C173.52145,25.5306675 172.154831,25.9876756 170.488992,25.9876756 C168.416092,25.9876756 166.763543,25.3571878 165.532106,24.095448 C164.300288,22.8337081 163.68476,21.1462935 163.68476,19.0335862 C163.68476,16.9472447 164.307123,15.2644154 165.551851,13.9850984 C166.796958,12.7057813 168.442672,12.0657407 170.488992,12.0657407 C172.464684,12.0657407 173.97104,12.6832366 175.00768,13.9178463 C176.04432,15.1532203 176.56264,16.9472447 176.56264,19.3006837 L167.392742,19.3006837 C167.445903,20.7630333 167.753477,21.8772772 168.316605,22.6441797 C168.878972,23.4110821 169.669553,23.7947244 170.688726,23.7947244 C171.7341,23.7947244 172.52468,23.5692772 173.060847,23.1191472 C173.596634,22.6690171 173.975597,21.9177813 174.196974,20.8654398 Z" id="Fill-18" fill="#FFDC00"></path>
                <path d="M187.17457,17.3618382 C187.094449,16.1669683 186.852946,15.2934561 186.450061,14.7405374 C186.046797,14.1876187 185.45557,13.9113504 184.676001,13.9113504 C183.878206,13.9113504 183.229262,14.2032854 182.728789,14.7875374 C182.228316,15.3714073 181.897958,16.229635 181.739234,17.3618382 L187.17457,17.3618382 Z M188.410184,20.8654398 L190.696109,20.8654398 C190.501312,22.4527407 189.870214,23.7030171 188.802437,24.6170333 C187.734659,25.5306675 186.368041,25.9876756 184.702202,25.9876756 C182.629302,25.9876756 180.976753,25.3571878 179.745316,24.095448 C178.513498,22.8337081 177.89797,21.1462935 177.89797,19.0335862 C177.89797,16.9472447 178.520333,15.2644154 179.765061,13.9850984 C181.010168,12.7057813 182.655882,12.0657407 184.702202,12.0657407 C186.677894,12.0657407 188.18425,12.6832366 189.22089,13.9178463 C190.25753,15.1532203 190.77585,16.9472447 190.77585,19.3006837 L181.605952,19.3006837 C181.659492,20.7630333 181.966687,21.8772772 182.529815,22.6441797 C183.092182,23.4110821 183.882763,23.7947244 184.901936,23.7947244 C185.94731,23.7947244 186.73789,23.5692772 187.274437,23.1191472 C187.810224,22.6690171 188.188807,21.9177813 188.410184,20.8654398 Z" id="Fill-20" fill="#FFDC00"></path>
                <path d="M64.9946799,30.6581764 L64.7733022,30.6581764 C63.8726024,30.6581764 63.2172028,30.928713 62.8074831,31.4701683 C62.3981431,32.0112415 62.185499,32.8889569 62.1687913,34.1033146 L60.8830537,34.1033146 L60.8830537,29.4136317 L71.4814652,29.4136317 L71.4814652,34.1033146 L70.1953479,34.1033146 C70.184336,32.9053878 69.9743499,32.0318756 69.5646302,31.4823959 C69.1552903,30.9329163 68.5025487,30.6581764 67.6075447,30.6581764 L67.3614851,30.6581764 L67.3614851,38.4055341 C67.3614851,38.861778 67.423,39.150274 67.5460298,39.271022 C67.6686799,39.3917699 67.9811909,39.452526 68.4835626,39.452526 L69.4419801,39.452526 L69.4419801,40.738339 L62.9141849,40.738339 L62.9141849,39.452526 L63.8889304,39.452526 C64.3856064,39.452526 64.6943201,39.3932984 64.8143121,39.2752252 C64.9343042,39.157152 64.9946799,38.8671276 64.9946799,38.4055341 L64.9946799,30.6581764 Z" id="Fill-22" fill="#FFDC00"></path>
                <path d="M74.2555978,40.7383008 L74.2555978,39.4524878 L74.9109974,39.4524878 C75.4076734,39.4524878 75.7160074,39.3932602 75.8363791,39.275187 C75.9563712,39.1571138 76.0163672,38.8674715 76.0163672,38.405878 L76.0163672,31.7376098 C76.0163672,31.2760163 75.9563712,30.986374 75.8363791,30.8683008 C75.7160074,30.7502276 75.4076734,30.691 74.9109974,30.691 L74.2555978,30.691 L74.2555978,29.4135935 L85.3290412,29.4135935 L85.3290412,33.9217724 L84.0512777,33.9217724 C84.0186217,32.6306098 83.8097748,31.7693252 83.424737,31.3379187 C83.0400789,30.9068943 82.2601306,30.691 81.0864109,30.691 L78.3835521,30.691 L78.3835521,34.1693821 L79.0226237,34.1693821 C79.7266276,34.1693821 80.1883692,34.0467236 80.4067091,33.8025528 C80.6246694,33.558 80.7613692,32.9962927 80.8160491,32.1170488 L82.0941922,32.1086423 L82.0941922,37.7872358 L80.8160491,37.7792114 C80.7666853,36.8067317 80.6330233,36.1789187 80.415063,35.8957724 C80.1963433,35.6130081 79.7380193,35.471626 79.0389517,35.471626 L78.3835521,35.471626 L78.3835521,39.4524878 L81.3320909,39.4524878 C82.3151903,39.4524878 82.9891962,39.2232195 83.3552479,38.7643008 C83.7209199,38.3053821 83.9529298,37.3646179 84.0512777,35.9412439 L85.3290412,35.9412439 L85.3290412,40.7383008 L74.2555978,40.7383008 Z" id="Fill-24" fill="#FFDC00"></path>
                <path d="M97.0544666,36.3533154 L98.4962698,36.3533154 C98.3869099,37.8588439 97.927067,39.0223805 97.1159815,39.8439252 C96.304896,40.6654699 95.2090193,41.0758602 93.8275918,41.0758602 C93.0032161,41.0758602 92.2578225,40.9467057 91.5914109,40.6887789 C90.9249994,40.4304699 90.3299755,40.0349821 89.8059596,39.5019333 C89.2272638,38.9245593 88.7886853,38.258535 88.4913632,37.5030959 C88.1936614,36.7476569 88.0448105,35.935665 88.0448105,35.0678846 C88.0448105,34.1943724 88.1894845,33.3934618 88.4792121,32.6651528 C88.76856,31.9368439 89.20524,31.279226 89.7896316,30.6911528 C90.3193433,30.1581041 90.9117091,29.7553561 91.5671087,29.4832911 C92.2221286,29.2119902 92.9265123,29.0755756 93.6802598,29.0755756 C94.2805998,29.0755756 94.8475243,29.1703398 95.379894,29.3598683 C95.9118841,29.5493967 96.4347608,29.8420959 96.9481445,30.2375837 L97.2838185,29.2242179 L98.4962698,29.2242179 L98.4962698,33.864226 L97.2021783,33.864226 C97.0707946,32.7816976 96.7256276,31.9441041 96.1659179,31.3502992 C95.6062082,30.7568764 94.8839775,30.4603561 93.999226,30.4603561 C92.9675223,30.4603561 92.1579557,30.8749496 91.5712857,31.7049008 C90.984236,32.5344699 90.6907111,33.6831041 90.6907111,35.150039 C90.6907111,36.5459008 90.9827171,37.6238439 91.5671087,38.3850146 C92.1511207,39.1465675 92.9728384,39.5267707 94.0322618,39.5267707 C94.8566376,39.5267707 95.5257072,39.2562341 96.0390909,38.7147789 C96.5524746,38.1737057 96.8908066,37.3861691 97.0544666,36.3533154" id="Fill-26" fill="#FFDC00"></path>
                <path d="M100.505339,40.7383008 L100.505339,39.4524878 L101.160359,39.4524878 C101.657415,39.4524878 101.965749,39.3932602 102.085741,39.275187 C102.206113,39.1571138 102.266109,38.8674715 102.266109,38.405878 L102.266109,31.7376098 C102.266109,31.2760163 102.206113,30.986374 102.085741,30.8683008 C101.965749,30.7502276 101.657415,30.691 101.160359,30.691 L100.505339,30.691 L100.505339,29.4135935 L106.541395,29.4135935 L106.541395,30.691 L105.754991,30.691 C105.252999,30.691 104.940488,30.751374 104.817458,30.8725041 C104.694429,30.993252 104.632914,31.281748 104.632914,31.7376098 L104.632914,34.2435122 L109.498287,34.2435122 L109.498287,31.7376098 C109.498287,31.2760163 109.437912,30.986374 109.318299,30.8683008 C109.197928,30.7502276 108.889214,30.691 108.392538,30.691 L107.59816,30.691 L107.59816,29.4135935 L113.64257,29.4135935 L113.64257,30.691 L112.98755,30.691 C112.485178,30.691 112.172667,30.751374 112.049637,30.8725041 C111.926987,30.993252 111.865472,31.281748 111.865472,31.7376098 L111.865472,38.405878 C111.865472,38.8617398 111.926987,39.1502358 112.049637,39.2709837 C112.172667,39.3921138 112.485178,39.4524878 112.98755,39.4524878 L113.64257,39.4524878 L113.64257,40.7383008 L107.59816,40.7383008 L107.59816,39.4524878 L108.392538,39.4524878 C108.889214,39.4524878 109.197928,39.3932602 109.318299,39.275187 C109.437912,39.1571138 109.498287,38.8674715 109.498287,38.405878 L109.498287,35.6034553 L104.632914,35.6034553 L104.632914,38.405878 C104.632914,38.8617398 104.694429,39.1502358 104.817458,39.2709837 C104.940488,39.3921138 105.252999,39.4524878 105.754991,39.4524878 L106.541395,39.4524878 L106.541395,40.7383008 L100.505339,40.7383008 Z" id="Fill-28" fill="#FFDC00"></path>
            </g>
        </g>
    </g>
</svg>